<svg width="267" height="267" viewBox="0 0 267 267" fill="none" xmlns="http://www.w3.org/2000/svg">
<g clip-path="url(#clip0_191_129)">
<path d="M266.42 0H0V266.42H266.42V0Z" fill="#0020BC"/>
<path d="M21.9599 53.84L21.6999 23.5H67.1699V37.14H39.2799L39.1899 47.46H64.8099V59.26H39.1899L39.2799 70.45H67.9599V84.09H21.6899L21.9499 53.84H21.9599Z" fill="white"/>
<path d="M21.9599 133.22L21.7 102.97H47.6699C64.0199 102.97 73.4599 109.7 73.4599 123.87C73.4599 138.04 64.19 144.85 47.41 144.85H39.2799L39.45 163.56H21.7L21.9599 133.22ZM47.93 131.56C54.05 131.56 56.8499 128.94 56.8499 124.04C56.8499 119.41 53.88 116.87 47.93 116.87H39.1899V131.56H47.93Z" fill="white"/>
<path d="M88.6699 133.31L88.4099 102.97H106.16L105.9 125.7L115.61 125.87L125.4 125.7L125.14 102.97H142.89L142.54 133.31L142.89 163.56H125.14L125.4 140.22L115.61 140.05L105.9 140.22L106.16 163.56H88.4099L88.6699 133.31Z" fill="white"/>
<path d="M19.4199 212.68C19.4199 192.75 30.3499 181.12 48.7999 181.12C64.1899 181.12 73.8099 189.6 75.5499 202.72L59.8999 207C58.5899 198.61 54.3899 195.37 48.8799 195.37C41.5399 195.37 37.3399 201.67 37.3399 212.68C37.3399 223.69 41.5399 230.08 48.9699 230.08C54.5699 230.08 58.6799 226.85 60.0699 217.93L75.6299 222.21C73.8799 235.85 63.9099 244.33 48.6999 244.33C30.3399 244.33 19.4099 232.61 19.4099 212.68H19.4199Z" fill="white"/>
<path d="M87.8799 212.68C87.8799 192.57 99.1599 181.12 117.61 181.12C136.06 181.12 147.6 192.57 147.6 212.68C147.6 232.79 136.23 244.33 117.61 244.33C98.9899 244.33 87.8799 232.7 87.8799 212.68ZM117.61 230.08C125.22 230.08 129.68 223.96 129.68 212.68C129.68 201.4 125.31 195.37 117.61 195.37C109.91 195.37 105.81 201.32 105.81 212.68C105.81 224.04 110.09 230.08 117.61 230.08Z" fill="white"/>
<path d="M155.56 239.51C155.56 236.99 157.22 235.56 160.24 235.56C163.26 235.56 164.92 236.99 164.92 239.51C164.92 242.03 163.26 243.46 160.24 243.46C157.22 243.46 155.56 242.08 155.56 239.51Z" fill="white"/>
<path d="M171.55 230.62L171.45 217.4H178.76L178.61 220.92H178.71C180.12 218.45 183.15 216.74 186.9 216.74C192.51 216.74 195.58 219.78 195.58 226.96V230.62L195.68 242.74H188.37L188.47 230.62V228.05C188.47 224.53 186.67 222.82 183.98 222.82C180.86 222.82 178.62 225.2 178.62 228.95V230.61L178.77 242.73H171.46L171.56 230.61L171.55 230.62Z" fill="white"/>
<path d="M201.49 230.1C201.49 221.92 206.32 216.79 214.26 216.79C223.23 216.79 226.4 223.45 226.4 231.62L208.95 231.71C209.39 235.85 211.73 237.89 214.7 237.89C217.43 237.89 219.33 235.89 219.87 232.99L226.26 234.61C225.38 238.89 221.87 243.45 214.51 243.45C206.61 243.45 201.49 238.22 201.49 230.09V230.1ZM219.43 227.44C219.23 224.3 217.53 222.26 214.36 222.26C211.82 222.26 209.73 223.69 209.05 227.44H219.43Z" fill="white"/>
<path d="M233.23 232.1L233.28 222.73L229.48 222.82V217.4H233.23V209.7H240.44V217.4H247.8V222.82L240.39 222.73L240.44 232.81C240.44 236.28 241.56 237.76 244 237.76C245.56 237.76 246.58 237.52 247.31 237.28L248.58 242.18C246.78 242.94 244.49 243.46 242.34 243.46C234.15 243.46 233.13 238.85 233.22 232.1H233.23Z" fill="white"/>
</g>
<defs>
<clipPath id="clip0_191_129">
<rect width="266.42" height="266.42" fill="white"/>
</clipPath>
</defs>
</svg>
