<svg width="700" height="267" viewBox="0 0 700 267" fill="none" xmlns="http://www.w3.org/2000/svg">
<g clip-path="url(#clip0_191_140)">
<path d="M289.7 22.7402L289.58 1.72021H317.35V6.70021H295.17L295.11 19.7602H316.01V24.7402H295.11L295.17 38.8402H317.89V43.8202H289.58L289.7 22.7402Z" fill="black"/>
<path d="M350.1 27.3001L350.22 43.8301H344.87L344.99 38.9701H344.87C343.29 42.0101 339.7 44.6201 334.84 44.6201C327.79 44.6201 323.9 40.4901 323.9 31.0101V27.3001L323.78 11.8701H329.13L329.01 27.3001V30.9501C329.01 37.3301 331.99 40.1201 336.42 40.1201C340.85 40.1201 344.99 35.9901 344.99 29.6701V27.3001L344.87 11.8701H350.22L350.1 27.3001Z" fill="black"/>
<path d="M358.25 28.4601L358.13 11.8701H363.48L363.3 16.9101H363.42C364.51 13.9301 367.8 11.0801 372.78 11.0801C373.45 11.0801 374.36 11.1401 375.15 11.3201L375.09 16.3601C374.06 16.0601 373.21 15.9401 372.48 15.9401C366.77 15.9401 363.37 19.7701 363.37 27.4801V28.3901L363.49 43.8201H358.14L358.26 28.4501L358.25 28.4601Z" fill="black"/>
<path d="M376.97 27.8501C376.97 17.5201 382.68 11.0801 391.86 11.0801C401.04 11.0801 406.87 17.5201 406.87 27.8501C406.87 38.1801 401.1 44.7401 391.86 44.7401C382.62 44.7401 376.97 38.2401 376.97 27.8501ZM391.86 40.3101C397.82 40.3101 401.52 35.7501 401.52 27.8501C401.52 19.9501 397.81 15.5201 391.86 15.5201C385.91 15.5201 382.32 20.0801 382.32 27.8501C382.32 35.6201 385.97 40.3101 391.86 40.3101Z" fill="black"/>
<path d="M412.76 30.2201L412.64 11.8701H418.17L418.05 16.6101H418.17C419.39 14.2401 422.67 11.0801 428.26 11.0801C436.58 11.0801 441.26 16.9701 441.26 27.7901C441.26 38.6101 436.58 44.7401 428.26 44.7401C422.67 44.7401 419.45 41.4001 418.11 38.9701H417.99L418.17 53.5501H412.64L412.76 30.2201ZM426.98 40.3701C432.69 40.3701 435.91 35.8701 435.91 27.7901C435.91 19.7101 432.69 15.4601 426.98 15.4601C422.24 15.4601 417.99 19.2301 417.99 27.9201C417.99 37.9501 423.16 40.3801 426.98 40.3801V40.3701Z" fill="black"/>
<path d="M444.9 27.9101C444.9 17.6401 450.25 11.0801 459.36 11.0801C469.87 11.0801 472.97 20.1301 472.97 29.3101H450.31C450.74 36.1801 454.38 40.3101 459.85 40.3101C464.35 40.3101 467.32 37.3901 468.17 32.4101L472.79 33.6201C471.88 39.3901 467.62 44.7401 459.85 44.7401C450.61 44.7401 444.9 38.1801 444.9 27.9101ZM467.62 25.0501C467.56 19.5201 464.58 15.5101 459.42 15.5101C454.62 15.5101 451.16 18.6101 450.43 25.0501H467.63H467.62Z" fill="black"/>
<path d="M476.93 35.6198C476.93 28.5098 481.91 25.3498 495.1 25.3498H497.89V24.4998C497.89 18.9098 496.01 15.3298 490.3 15.3298C483.98 15.3298 481.98 20.1898 482.1 23.7798L477.48 22.6298C477.48 16.1298 482.46 11.0898 490.3 11.0898C498.81 11.0898 502.88 15.3398 502.88 23.3598V37.5198C502.88 39.5898 503.43 40.5598 505.55 40.5598C506.16 40.5598 506.83 40.4398 507.43 40.1998L508.22 43.7198C507.01 44.1398 505.67 44.4498 504.21 44.4498C500.93 44.4498 498.92 42.4498 498.92 38.7998C498.92 37.8898 498.98 37.3998 499.04 36.9798H498.92C496.85 41.6598 493.03 44.7598 487.25 44.7598C480.44 44.7598 476.92 40.9298 476.92 35.6498L476.93 35.6198ZM487.99 40.3598C492.85 40.3598 497.89 36.2298 497.89 29.7898V29.1798H496.43C486.65 29.1798 482.21 30.5198 482.21 35.5598C482.21 38.4198 484.34 40.3598 487.98 40.3598H487.99Z" fill="black"/>
<path d="M511.99 28.3898L511.87 11.8598H517.22L517.1 16.7198H517.22C518.8 13.6798 522.39 11.0698 527.55 11.0698C534.6 11.0698 538.49 15.1998 538.49 24.6798V28.3898L538.61 43.8198H533.26L533.38 28.3898V24.7398C533.38 18.3598 530.4 15.5698 525.97 15.5698C521.11 15.5698 517.1 19.6998 517.1 26.0198V28.3898L517.22 43.8198H511.87L511.99 28.3898Z" fill="black"/>
<path d="M289.7 95.6601L289.58 74.6401H304.65C314.49 74.6401 320.08 78.7101 320.08 87.2201C320.08 95.7301 314.79 100.28 304.04 100.28H295.17L295.29 116.75H289.58L289.7 95.6701V95.6601ZM304.65 95.4201C311.15 95.4201 314.37 92.6301 314.37 87.2201C314.37 82.1201 310.72 79.5001 304.65 79.5001H295.23L295.17 95.4201H304.65Z" fill="black"/>
<path d="M325.68 101.32L325.56 74.5898H330.91L330.79 89.6599H330.91C332.49 86.6199 336.08 84.0098 341.24 84.0098C348.29 84.0098 352.18 88.1399 352.18 97.6199V101.33L352.3 116.76H346.95L347.07 101.33V97.6798C347.07 91.2998 344.09 88.5098 339.66 88.5098C334.8 88.5098 330.79 92.6398 330.79 98.9598V101.33L330.91 116.76H325.56L325.68 101.33V101.32Z" fill="black"/>
<path d="M358.25 108.55C358.25 101.44 363.23 98.28 376.42 98.28H379.21V97.43C379.21 91.84 377.33 88.26 371.62 88.26C365.3 88.26 363.3 93.12 363.42 96.71L358.8 95.56C358.8 89.06 363.78 84.02 371.62 84.02C380.13 84.02 384.2 88.27 384.2 96.29V110.45C384.2 112.52 384.75 113.49 386.87 113.49C387.48 113.49 388.15 113.37 388.75 113.13L389.54 116.65C388.33 117.07 386.99 117.38 385.53 117.38C382.25 117.38 380.24 115.38 380.24 111.73C380.24 110.82 380.3 110.33 380.36 109.91H380.24C378.17 114.59 374.35 117.69 368.57 117.69C361.76 117.69 358.24 113.86 358.24 108.58L358.25 108.55ZM369.31 113.29C374.17 113.29 379.21 109.16 379.21 102.72V102.11H377.75C367.97 102.11 363.53 103.45 363.53 108.49C363.53 111.35 365.66 113.29 369.3 113.29H369.31Z" fill="black"/>
<path d="M393.31 101.38L393.19 84.79H398.54L398.36 89.83H398.48C399.57 86.85 402.86 84 407.84 84C408.51 84 409.42 84.06 410.21 84.24L410.15 89.28C409.12 88.98 408.27 88.86 407.54 88.86C401.83 88.86 398.43 92.69 398.43 100.4V101.31L398.55 116.74H393.2L393.32 101.37L393.31 101.38Z" fill="black"/>
<path d="M414.88 101.32L414.76 84.79H420.05L419.93 89.65H420.05C421.63 86.61 425.22 84 429.77 84C433.72 84 436.94 86.13 438.28 90.93H438.4C440.34 86.8 444.17 84 448.85 84C454.32 84 458.21 87.89 458.21 96.76V101.32L458.33 116.75H452.98L453.1 101.32V96.82C453.1 91.05 450.67 88.5 447.27 88.5C443.02 88.5 439.07 92.63 439.07 98.95V101.32L439.19 116.75H433.84L433.96 101.32V96.82C433.96 91.05 431.53 88.5 428.19 88.5C423.94 88.5 419.93 92.63 419.93 98.95V101.32L420.05 116.75H414.76L414.88 101.32Z" fill="black"/>
<path d="M464.29 108.55C464.29 101.44 469.27 98.28 482.46 98.28H485.25V97.43C485.25 91.84 483.37 88.26 477.66 88.26C471.34 88.26 469.34 93.12 469.46 96.71L464.84 95.56C464.84 89.06 469.82 84.02 477.66 84.02C486.17 84.02 490.24 88.27 490.24 96.29V110.45C490.24 112.52 490.79 113.49 492.91 113.49C493.52 113.49 494.19 113.37 494.79 113.13L495.58 116.65C494.37 117.07 493.03 117.38 491.57 117.38C488.29 117.38 486.28 115.38 486.28 111.73C486.28 110.82 486.34 110.33 486.4 109.91H486.28C484.21 114.59 480.39 117.69 474.61 117.69C467.8 117.69 464.28 113.86 464.28 108.58L464.29 108.55ZM475.35 113.29C480.21 113.29 485.25 109.16 485.25 102.72V102.11H483.79C474.01 102.11 469.57 103.45 469.57 108.49C469.57 111.35 471.7 113.29 475.34 113.29H475.35Z" fill="black"/>
<path d="M497.1 100.83C497.1 90.5 502.81 84 511.99 84C519.77 84 524.08 89.29 524.99 95.06L520.37 96.27C519.52 91.35 516.54 88.43 512.05 88.43C506.16 88.43 502.45 93.11 502.45 100.83C502.45 108.55 506.16 113.22 512.05 113.22C516.55 113.22 519.52 110.36 520.37 105.38L524.99 106.59C524.08 112.36 519.82 117.65 512.05 117.65C502.88 117.65 497.1 111.15 497.1 100.82V100.83Z" fill="black"/>
<path d="M527.73 100.83C527.73 90.56 533.08 84 542.19 84C552.7 84 555.8 93.05 555.8 102.23H533.14C533.57 109.1 537.21 113.23 542.68 113.23C547.18 113.23 550.15 110.31 551 105.33L555.62 106.54C554.71 112.31 550.45 117.66 542.68 117.66C533.44 117.66 527.73 111.1 527.73 100.83ZM550.45 97.97C550.39 92.44 547.41 88.43 542.25 88.43C537.45 88.43 533.99 91.53 533.26 97.97H550.46H550.45Z" fill="black"/>
<path d="M587.76 100.22L587.88 116.75H582.53L582.65 111.89H582.53C580.95 114.93 577.36 117.54 572.5 117.54C565.45 117.54 561.56 113.41 561.56 103.93V100.22L561.44 84.79H566.79L566.67 100.22V103.87C566.67 110.25 569.65 113.04 574.08 113.04C578.51 113.04 582.65 108.91 582.65 102.59V100.22L582.53 84.79H587.88L587.76 100.22Z" fill="black"/>
<path d="M596.7 105.39V88.92L591.84 89.04V84.79H596.7V74.52H602.05V84.79H611.89V89.04L602.05 88.92V106.12C602.05 110.86 602.78 113.29 606.73 113.29C608.98 113.29 610.62 112.86 611.65 112.5L612.62 116.45C610.74 117.18 608.55 117.66 606.18 117.66C596.82 117.66 596.7 111.52 596.7 105.39Z" fill="black"/>
<path d="M619.55 74.3999C621.74 74.3999 622.83 75.4899 622.83 77.6799C622.83 79.8699 621.74 81.0199 619.55 81.0199C617.36 81.0199 616.27 79.9299 616.27 77.6799C616.27 75.4299 617.36 74.3999 619.55 74.3999ZM617 100.77L616.88 84.7899H622.23L622.11 100.77L622.23 116.75H616.88L617 100.77Z" fill="black"/>
<path d="M627.99 100.83C627.99 90.5 633.7 84 642.88 84C650.66 84 654.97 89.29 655.88 95.06L651.26 96.27C650.41 91.35 647.43 88.43 642.94 88.43C637.05 88.43 633.34 93.11 633.34 100.83C633.34 108.55 637.05 113.22 642.94 113.22C647.44 113.22 650.41 110.36 651.26 105.38L655.88 106.59C654.97 112.36 650.71 117.65 642.94 117.65C633.77 117.65 627.99 111.15 627.99 100.82V100.83Z" fill="black"/>
<path d="M658.92 108.55C658.92 101.44 663.9 98.28 677.09 98.28H679.88V97.43C679.88 91.84 678 88.26 672.29 88.26C665.97 88.26 663.97 93.12 664.09 96.71L659.47 95.56C659.47 89.06 664.45 84.02 672.29 84.02C680.8 84.02 684.87 88.27 684.87 96.29V110.45C684.87 112.52 685.42 113.49 687.54 113.49C688.15 113.49 688.82 113.37 689.42 113.13L690.21 116.65C689 117.07 687.66 117.38 686.2 117.38C682.92 117.38 680.91 115.38 680.91 111.73C680.91 110.82 680.97 110.33 681.03 109.91H680.91C678.84 114.59 675.02 117.69 669.24 117.69C662.43 117.69 658.91 113.86 658.91 108.58L658.92 108.55ZM669.98 113.29C674.84 113.29 679.88 109.16 679.88 102.72V102.11H678.42C668.64 102.11 664.2 103.45 664.2 108.49C664.2 111.35 666.33 113.29 669.97 113.29H669.98Z" fill="black"/>
<path d="M693.99 95.3601L693.87 74.5801H699.22L699.1 95.3601L699.22 116.75H693.87L693.99 95.3601Z" fill="black"/>
<path d="M287.15 168.65C287.15 155.16 294.2 146.65 305.56 146.65C315.46 146.65 320.99 152.61 322.33 160.62L317.17 162.02C316.2 156.19 312.25 151.63 305.75 151.63C297.73 151.63 292.87 158.07 292.87 168.64C292.87 179.21 297.79 185.59 305.69 185.59C312.62 185.59 316.44 181.03 317.42 173.99L322.58 175.39C321.24 184.63 315.11 190.58 305.51 190.58C294.21 190.58 287.16 182.13 287.16 168.65H287.15Z" fill="black"/>
<path d="M325.62 173.69C325.62 163.36 331.33 156.92 340.51 156.92C349.69 156.92 355.52 163.36 355.52 173.69C355.52 184.02 349.75 190.58 340.51 190.58C331.27 190.58 325.62 184.08 325.62 173.69ZM340.51 186.15C346.47 186.15 350.17 181.59 350.17 173.69C350.17 165.79 346.46 161.36 340.51 161.36C334.56 161.36 330.97 165.92 330.97 173.69C330.97 181.46 334.62 186.15 340.51 186.15Z" fill="black"/>
<path d="M361.41 174.24L361.29 157.71H366.58L366.46 162.57H366.58C368.16 159.53 371.75 156.92 376.3 156.92C380.25 156.92 383.47 159.05 384.81 163.85H384.93C386.87 159.72 390.7 156.92 395.38 156.92C400.85 156.92 404.74 160.81 404.74 169.68V174.24L404.86 189.67H399.51L399.63 174.24V169.74C399.63 163.97 397.2 161.42 393.8 161.42C389.55 161.42 385.6 165.55 385.6 171.87V174.24L385.72 189.67H380.37L380.49 174.24V169.74C380.49 163.97 378.06 161.42 374.72 161.42C370.47 161.42 366.46 165.55 366.46 171.87V174.24L366.58 189.67H361.29L361.41 174.24Z" fill="black"/>
<path d="M412.76 174.24L412.64 157.71H417.93L417.81 162.57H417.93C419.51 159.53 423.1 156.92 427.65 156.92C431.6 156.92 434.82 159.05 436.16 163.85H436.28C438.22 159.72 442.05 156.92 446.73 156.92C452.2 156.92 456.09 160.81 456.09 169.68V174.24L456.21 189.67H450.86L450.98 174.24V169.74C450.98 163.97 448.55 161.42 445.15 161.42C440.9 161.42 436.95 165.55 436.95 171.87V174.24L437.07 189.67H431.72L431.84 174.24V169.74C431.84 163.97 429.41 161.42 426.07 161.42C421.82 161.42 417.81 165.55 417.81 171.87V174.24L417.93 189.67H412.64L412.76 174.24Z" fill="black"/>
<path d="M461.86 173.69C461.86 163.36 467.57 156.92 476.75 156.92C485.93 156.92 491.76 163.36 491.76 173.69C491.76 184.02 485.99 190.58 476.75 190.58C467.51 190.58 461.86 184.08 461.86 173.69ZM476.75 186.15C482.71 186.15 486.41 181.59 486.41 173.69C486.41 165.79 482.7 161.36 476.75 161.36C470.8 161.36 467.21 165.92 467.21 173.69C467.21 181.46 470.86 186.15 476.75 186.15Z" fill="black"/>
<path d="M497.65 174.24L497.53 157.71H502.88L502.76 162.57H502.88C504.46 159.53 508.05 156.92 513.21 156.92C520.26 156.92 524.15 161.05 524.15 170.53V174.24L524.27 189.67H518.92L519.04 174.24V170.59C519.04 164.21 516.06 161.42 511.63 161.42C506.77 161.42 502.76 165.55 502.76 171.87V174.24L502.88 189.67H497.53L497.65 174.24Z" fill="black"/>
<path d="M529 180.44L533.68 179.29C533.56 183.24 536.35 186.16 542.13 186.16C546.26 186.16 548.75 184.64 548.75 181.24C548.75 178.32 546.5 176.62 541.58 175.83C532.89 174.49 530.52 170.79 530.52 166.23C530.52 160.94 533.98 156.93 540.97 156.93C548.63 156.93 552.45 160.09 553.06 166.41L548.44 167.56C548.2 163.37 545.83 161.36 541.21 161.36C537.63 161.36 535.68 163.06 535.68 165.8C535.68 168.54 537.38 170.18 542.79 171.15C550.81 172.55 553.91 176.07 553.91 181.05C553.91 186.4 549.72 190.59 541.94 190.59C534.16 190.59 529.61 187.37 529 180.44Z" fill="black"/>
<path d="M289.7 241.57L289.58 220.49H296.26L308.11 241.03L316.01 254.09H316.19V240.18L316.01 220.49H321.72L321.6 241.51L321.72 262.59H315.04L304.53 244.36L295.29 228.99H295.11V242.9L295.29 262.59H289.58L289.7 241.57Z" fill="black"/>
<path d="M327.81 246.67C327.81 236.4 333.16 229.84 342.27 229.84C352.78 229.84 355.88 238.89 355.88 248.07H333.22C333.65 254.94 337.29 259.07 342.76 259.07C347.26 259.07 350.23 256.15 351.08 251.17L355.7 252.38C354.79 258.15 350.53 263.5 342.76 263.5C333.52 263.5 327.81 256.94 327.81 246.67ZM350.53 243.81C350.47 238.28 347.49 234.27 342.33 234.27C337.53 234.27 334.07 237.37 333.34 243.81H350.54H350.53Z" fill="black"/>
<path d="M362.2 251.23V234.76L357.34 234.88V230.63H362.2V220.36H367.55V230.63H377.39V234.88L367.55 234.76V251.96C367.55 256.7 368.28 259.13 372.23 259.13C374.48 259.13 376.12 258.7 377.15 258.34L378.12 262.29C376.24 263.02 374.05 263.5 371.68 263.5C362.32 263.5 362.2 257.36 362.2 251.23Z" fill="black"/>
<path d="M378.73 230.63H384.08L390.83 257.3H390.89L397.69 230.63H402.92L409.66 257.3H409.72L416.52 230.63H421.69L412.82 262.59H406.44L400.24 238.47H400.12L393.8 262.59H387.48L378.73 230.63Z" fill="black"/>
<path d="M423.45 246.61C423.45 236.28 429.16 229.84 438.34 229.84C447.52 229.84 453.35 236.28 453.35 246.61C453.35 256.94 447.58 263.5 438.34 263.5C429.1 263.5 423.45 257 423.45 246.61ZM438.34 259.07C444.3 259.07 448 254.51 448 246.61C448 238.71 444.29 234.28 438.34 234.28C432.39 234.28 428.8 238.84 428.8 246.61C428.8 254.38 432.45 259.07 438.34 259.07Z" fill="black"/>
<path d="M459.24 247.22L459.12 230.63H464.47L464.29 235.67H464.41C465.5 232.69 468.79 229.84 473.77 229.84C474.44 229.84 475.35 229.9 476.14 230.08L476.08 235.12C475.05 234.82 474.2 234.7 473.47 234.7C467.76 234.7 464.36 238.53 464.36 246.24V247.15L464.48 262.58H459.13L459.25 247.21L459.24 247.22Z" fill="black"/>
<path d="M480.82 241.2L480.7 220.42H486.05L485.93 241.2V245.27L499.3 230.63H505.68L494.62 242.36L507.56 262.59H501.42L491.03 246.18L485.99 251.59L486.05 262.59H480.7L480.82 241.2Z" fill="black"/>
<path d="M266.42 0H0V266.42H266.42V0Z" fill="#0020BC"/>
<path d="M21.9599 53.84L21.6999 23.5H67.1699V37.14H39.2799L39.1899 47.46H64.8099V59.26H39.1899L39.2799 70.45H67.9599V84.09H21.6899L21.9499 53.84H21.9599Z" fill="white"/>
<path d="M21.9599 133.22L21.7 102.97H47.6699C64.0199 102.97 73.4599 109.7 73.4599 123.87C73.4599 138.04 64.19 144.85 47.41 144.85H39.2799L39.45 163.56H21.7L21.9599 133.22ZM47.93 131.56C54.05 131.56 56.8499 128.94 56.8499 124.04C56.8499 119.41 53.88 116.87 47.93 116.87H39.1899V131.56H47.93Z" fill="white"/>
<path d="M88.6699 133.31L88.4099 102.97H106.16L105.9 125.7L115.61 125.87L125.4 125.7L125.14 102.97H142.89L142.54 133.31L142.89 163.56H125.14L125.4 140.22L115.61 140.05L105.9 140.22L106.16 163.56H88.4099L88.6699 133.31Z" fill="white"/>
<path d="M19.4199 212.68C19.4199 192.75 30.3499 181.12 48.7999 181.12C64.1899 181.12 73.8099 189.6 75.5499 202.72L59.8999 207C58.5899 198.61 54.3899 195.37 48.8799 195.37C41.5399 195.37 37.3399 201.67 37.3399 212.68C37.3399 223.69 41.5399 230.08 48.9699 230.08C54.5699 230.08 58.6799 226.85 60.0699 217.93L75.6299 222.21C73.8799 235.85 63.9099 244.33 48.6999 244.33C30.3399 244.33 19.4099 232.61 19.4099 212.68H19.4199Z" fill="white"/>
<path d="M87.8799 212.68C87.8799 192.57 99.1599 181.12 117.61 181.12C136.06 181.12 147.6 192.57 147.6 212.68C147.6 232.79 136.23 244.33 117.61 244.33C98.9899 244.33 87.8799 232.7 87.8799 212.68ZM117.61 230.08C125.22 230.08 129.68 223.96 129.68 212.68C129.68 201.4 125.31 195.37 117.61 195.37C109.91 195.37 105.81 201.32 105.81 212.68C105.81 224.04 110.09 230.08 117.61 230.08Z" fill="white"/>
<path d="M155.56 239.51C155.56 236.99 157.22 235.56 160.24 235.56C163.26 235.56 164.92 236.99 164.92 239.51C164.92 242.03 163.26 243.46 160.24 243.46C157.22 243.46 155.56 242.08 155.56 239.51Z" fill="white"/>
<path d="M171.55 230.62L171.45 217.4H178.76L178.61 220.92H178.71C180.12 218.45 183.15 216.74 186.9 216.74C192.51 216.74 195.58 219.78 195.58 226.96V230.62L195.68 242.74H188.37L188.47 230.62V228.05C188.47 224.53 186.67 222.82 183.98 222.82C180.86 222.82 178.62 225.2 178.62 228.95V230.61L178.77 242.73H171.46L171.56 230.61L171.55 230.62Z" fill="white"/>
<path d="M201.49 230.1C201.49 221.92 206.32 216.79 214.26 216.79C223.23 216.79 226.4 223.45 226.4 231.62L208.95 231.71C209.39 235.85 211.73 237.89 214.7 237.89C217.43 237.89 219.33 235.89 219.87 232.99L226.26 234.61C225.38 238.89 221.87 243.45 214.51 243.45C206.61 243.45 201.49 238.22 201.49 230.09V230.1ZM219.43 227.44C219.23 224.3 217.53 222.26 214.36 222.26C211.82 222.26 209.73 223.69 209.05 227.44H219.43Z" fill="white"/>
<path d="M233.23 232.1L233.28 222.73L229.48 222.82V217.4H233.23V209.7H240.44V217.4H247.8V222.82L240.39 222.73L240.44 232.81C240.44 236.28 241.56 237.76 244 237.76C245.56 237.76 246.58 237.52 247.31 237.28L248.58 242.18C246.78 242.94 244.49 243.46 242.34 243.46C234.15 243.46 233.13 238.85 233.22 232.1H233.23Z" fill="white"/>
</g>
<defs>
<clipPath id="clip0_191_140">
<rect width="699.21" height="266.42" fill="white"/>
</clipPath>
</defs>
</svg>
